<svg width="54" height="49" viewBox="0 0 54 49" fill="none" xmlns="http://www.w3.org/2000/svg">
<rect x="1.65032" y="19.898" width="41.6" height="30.6" rx="3.3" transform="rotate(-26.6078 1.65032 19.898)" fill="url(#paint0_linear_5_976)" stroke="#595959" stroke-width="1.4"/>
<path fill-rule="evenodd" clip-rule="evenodd" d="M28.4839 13.5303C25.8861 11.6254 22.8138 10.6469 21.0621 10.5406C20.9469 10.5349 20.8396 10.4842 20.7638 10.3997C20.688 10.3152 20.6499 10.2039 20.6579 10.0902C20.6659 9.97648 20.7194 9.86971 20.8065 9.79337C20.8936 9.71703 21.0072 9.67737 21.1224 9.68312C23.4114 9.81091 26.6503 11.1129 28.9929 12.8282C29.0436 12.8581 29.0868 12.8987 29.1195 12.9473C29.1521 12.9958 29.1735 13.0509 29.182 13.1089C29.1905 13.1669 29.186 13.2263 29.1688 13.2828C29.1516 13.3394 29.122 13.3917 29.0823 13.4362C29.0434 13.4906 28.9917 13.5349 28.9318 13.5653C28.8604 13.6011 28.7807 13.6168 28.7016 13.6107C28.6225 13.6045 28.5471 13.5767 28.4839 13.5303ZM22.7334 31.7533C24.5389 35.2936 30.0828 37.8155 33.1255 38.0039C33.1826 38.0043 33.2388 38.0166 33.2903 38.0399C33.3419 38.0632 33.3877 38.097 33.4248 38.1391C33.4618 38.1813 33.4894 38.2308 33.5056 38.2845C33.5218 38.3382 33.5263 38.3949 33.5188 38.4509C33.5124 38.5244 33.487 38.5955 33.445 38.6573C33.403 38.7191 33.3458 38.7694 33.2788 38.8036C33.2104 38.8381 33.1339 38.8532 33.058 38.8471C29.8185 38.6589 24.2582 36.1498 22.1405 32.4706L10.5536 38.2749C10.4531 38.3138 10.3422 38.3147 10.2426 38.2774C10.1429 38.2401 10.0615 38.1673 10.0144 38.0732C9.96723 37.9791 9.95764 37.8703 9.98747 37.7682C10.0173 37.666 10.0844 37.5778 10.1758 37.5206L21.8358 31.6797C21.3137 28.8138 19.9864 26.1641 18.0038 24.0299L6.34373 29.8708C6.24181 29.9219 6.12426 29.9313 6.01694 29.897C5.90961 29.8627 5.8213 29.7875 5.77143 29.688C5.72157 29.5884 5.71423 29.4727 5.75103 29.3662C5.78784 29.2597 5.86577 29.1712 5.96769 29.1201L17.5546 23.3159C15.8689 19.4024 17.2107 13.4537 18.9851 10.7538C19.0495 10.6581 19.1493 10.5908 19.2626 10.5668C19.3759 10.5427 19.4934 10.5638 19.5893 10.6255C19.6851 10.6872 19.7515 10.7844 19.7738 10.8957C19.796 11.0069 19.7724 11.1232 19.708 11.2189C18.028 13.7508 16.7298 19.7045 18.4859 23.2741C20.7103 25.6213 22.1855 28.5663 22.7334 31.7533ZM47.8532 18.6467L36.1712 24.4986C34.1886 22.3644 32.8613 19.7147 32.3392 16.8488L44.0212 10.9969C44.1231 10.9458 44.201 10.8573 44.2378 10.7508C44.2746 10.6444 44.2673 10.5286 44.2174 10.4291C44.1676 10.3295 44.0793 10.2543 43.9719 10.22C43.8646 10.1857 43.7471 10.1952 43.6451 10.2462L31.6667 16.2466C31.5838 16.2893 31.5168 16.3571 31.4757 16.4398C31.4345 16.5225 31.4215 16.6157 31.4386 16.7052C31.9839 19.9186 33.4712 22.8877 35.7183 25.2487C37.4726 28.8147 36.1727 34.7649 34.5016 37.3146C34.4658 37.3599 34.4401 37.4119 34.4261 37.4673C34.4121 37.5227 34.4101 37.5802 34.4203 37.636C34.4305 37.6918 34.4527 37.7445 34.4852 37.7908C34.5178 37.8371 34.5601 37.8759 34.6094 37.9045C34.6721 37.9435 34.7443 37.9657 34.8189 37.9691C34.8935 37.9724 34.9681 37.9567 35.0355 37.9236C35.1042 37.8895 35.1621 37.8372 35.2026 37.7728C36.986 35.0908 38.3117 29.1098 36.6332 25.2107L48.231 19.4009C48.3224 19.3438 48.3895 19.2555 48.4193 19.1534C48.4492 19.0512 48.4396 18.9425 48.3924 18.8483C48.3453 18.7542 48.2639 18.6814 48.1643 18.6441C48.0646 18.6069 47.9537 18.6078 47.8532 18.6467ZM20.6971 12.4572C20.7732 12.3267 20.8865 12.2207 21.0226 12.1525C21.2051 12.0611 21.4155 12.0442 21.6077 12.1056C21.7999 12.167 21.958 12.3016 22.0473 12.4799C22.1138 12.6128 22.1386 12.7629 22.1183 12.9113C22.0981 13.0597 22.0338 13.1997 21.9335 13.3135C21.8333 13.4274 21.7016 13.51 21.5552 13.5509C21.4087 13.5918 21.2541 13.5892 21.1108 13.5435C20.9674 13.4977 20.8419 13.4108 20.7501 13.2937C20.6582 13.1766 20.6042 13.0347 20.5947 12.8858C20.5853 12.7369 20.6209 12.5878 20.6971 12.4572Z" fill="#666666"/>
<defs>
<linearGradient id="paint0_linear_5_976" x1="-3.3843" y1="19.5857" x2="46.4817" y2="52.6566" gradientUnits="userSpaceOnUse">
<stop stop-color="#FBC926"/>
<stop offset="0.212761" stop-color="#FFFBCC"/>
<stop offset="0.548384" stop-color="#C3922E" stop-opacity="0.8"/>
<stop offset="0.914316" stop-color="#EED688"/>
<stop offset="1" stop-color="#FFFBCC"/>
</linearGradient>
</defs>
</svg>
