<svg width="108" height="66" viewBox="0 0 108 66" fill="none" xmlns="http://www.w3.org/2000/svg">
<path d="M35.3235 26.3261L37.9715 61.848L30.0752 65.8362L12.3006 45.3964C11.9653 44.8714 11.5007 44.4423 10.9529 44.1512C10.405 43.8601 9.79267 43.7173 9.17635 43.7367C6.24632 43.7959 3.33774 44.2123 0.514048 44.9767L0.2566 44.0372L13.0176 37.5921C13.8487 37.1608 14.8098 37.049 15.723 37.2772C16.6362 37.5054 17.4398 38.0583 17.9851 38.8335L29.7734 54.21L27.4501 30.3027L35.3235 26.3261ZM76.47 30.4493C72.5555 22.6988 61.7609 27.6234 60.0615 24.0867C59.5309 23.0362 59.9794 21.4033 62.0051 20.0286C64.4162 18.4948 67.2027 17.6546 70.0661 17.598L68.2321 10.7012C65.5369 10.9791 62.9168 11.7369 60.4936 12.9396C53.0814 16.6833 49.8295 23.336 52.7182 29.0555C54.8523 33.2809 59.7607 33.7465 63.3098 33.7266C66.859 33.7067 68.3968 34.0873 69.0514 35.4121C70.0477 37.3848 68.1785 39.413 66.0174 40.5484C63.3636 41.9673 60.3847 42.6696 57.3681 42.5875L59.3139 49.6769C62.4861 49.3854 65.5685 48.4897 68.3978 47.0374C76.2711 43.0608 79.4487 36.5189 76.3885 30.4025L76.47 30.4493ZM100.825 30.0878L107.742 26.5945L86.8632 0.29506L80.4539 3.5322C79.7862 3.88399 79.237 4.42561 78.8737 5.09056C78.5105 5.75551 78.3489 6.51482 78.409 7.27524L80.8426 40.1952L88.6928 36.2303L88.0439 31.0497L97.6694 26.1881L100.825 30.0878ZM87.1806 23.9263L85.5694 10.9105L93.4401 20.7648L87.1806 23.9263ZM46.0441 20.9115L54.675 53.4116L47.1936 57.1902L38.5512 24.6959L46.0441 20.9115Z" fill="#DDE8EE"/>
</svg>
