<svg width="70" height="80" viewBox="0 0 70 80" fill="none" xmlns="http://www.w3.org/2000/svg">
<g filter="url(#filter0_d_5_919)">
<path d="M36.2468 31.25C37.0598 32.3881 37.4968 33.7519 37.4968 35.1506V36.5C37.9253 36.5 38.3414 36.3568 38.6791 36.0931C39.0168 35.8294 39.2567 35.4605 39.3606 35.0448L39.4968 34.5L39.8663 34.9434C40.4621 35.6583 40.7854 36.561 40.7789 37.4915C40.7725 38.4221 40.4367 39.3202 39.8311 40.0268C39.6041 40.2915 39.4855 40.6322 39.4988 40.9806C39.5122 41.3291 39.6565 41.6596 39.9031 41.9062C40.0407 42.0439 40.2059 42.151 40.3877 42.2205C40.5696 42.29 40.7641 42.3203 40.9584 42.3096C41.1528 42.2988 41.3427 42.2471 41.5158 42.158C41.6889 42.0688 41.8412 41.9441 41.9628 41.7921L42.9968 40.5L43.9968 43C44.4503 44.5115 44.486 46.1177 44.1002 47.6479C43.7144 49.1781 42.9215 50.5753 41.8056 51.6912L41.6795 51.8173C39.9619 53.535 37.6322 54.5 35.2031 54.5H34.1828C32.6011 54.5 31.0464 54.0904 29.67 53.3111C28.2936 52.5318 27.1425 51.4094 26.3287 50.0531C25.3543 48.4291 24.9073 46.5429 25.0492 44.6542C25.1911 42.7656 25.915 40.9674 27.1213 39.5072L31.169 34.6073C31.5679 34.1244 31.8242 33.5399 31.9093 32.9195C31.9943 32.299 31.9046 31.6671 31.6503 31.0947C31.3276 30.3688 31.2719 29.5521 31.4932 28.789C31.7144 28.026 32.1983 27.3658 32.8593 26.925L34.9968 25.5V27.3494C34.9968 28.7481 35.4338 30.1119 36.2468 31.25V31.25Z" fill="url(#paint0_linear_5_919)"/>
<path d="M38.6895 51.0882L38.6939 51.0838C39.4716 50.3001 40.0265 49.3234 40.3014 48.2541C40.5763 47.1848 40.5613 46.0616 40.258 45L38.8034 46.4546C38.6662 46.5919 38.5032 46.7008 38.3238 46.7751C38.1445 46.8494 37.9522 46.8877 37.7581 46.8877C37.5639 46.8877 37.3717 46.8494 37.1923 46.7751C37.013 46.7008 36.85 46.5919 36.7127 46.4546C36.4519 46.1938 36.2979 45.8448 36.2812 45.4763C36.2644 45.1078 36.386 44.7463 36.6222 44.4629C37.1085 43.8794 37.4141 43.1667 37.5017 42.4122C37.5892 41.6577 37.4549 40.8941 37.1152 40.2147L34.758 35.5L34.3955 39.4875C34.352 39.9657 34.2124 40.4303 33.985 40.8532C33.7576 41.2762 33.4471 41.6488 33.0722 41.9489L31.0114 43.5976C30.4643 44.0352 30.0228 44.5902 29.7193 45.2216C29.4159 45.853 29.2583 46.5445 29.2583 47.2451V47.8125C29.2583 48.4973 29.4089 49.1736 29.6993 49.7938C29.9897 50.4139 30.413 50.9626 30.939 51.4009C31.7906 52.1106 32.8669 52.4943 33.9755 52.4834L35.4204 52.4691C36.6493 52.4568 37.8239 51.9606 38.6895 51.0882V51.0882Z" fill="#FDD04A"/>
<path d="M26.5 36C26.3674 36 26.2402 35.9473 26.1464 35.8536C26.0527 35.7598 26 35.6326 26 35.5V34.5C26 34.3674 26.0527 34.2402 26.1464 34.1464C26.2402 34.0527 26.3674 34 26.5 34C26.6326 34 26.7598 34.0527 26.8536 34.1464C26.9473 34.2402 27 34.3674 27 34.5V35.5C27 35.6326 26.9473 35.7598 26.8536 35.8536C26.7598 35.9473 26.6326 36 26.5 36Z" fill="#FE691E"/>
<path d="M28 33.5C27.8674 33.5 27.7402 33.4473 27.6464 33.3536C27.5527 33.2598 27.5 33.1326 27.5 33V32C27.5 31.8674 27.5527 31.7402 27.6464 31.6464C27.7402 31.5527 27.8674 31.5 28 31.5C28.1326 31.5 28.2598 31.5527 28.3536 31.6464C28.4473 31.7402 28.5 31.8674 28.5 32V33C28.5 33.1326 28.4473 33.2598 28.3536 33.3536C28.2598 33.4473 28.1326 33.5 28 33.5Z" fill="#FF8D54"/>
<path d="M26 31.5C25.8674 31.5 25.7402 31.4473 25.6464 31.3536C25.5527 31.2598 25.5 31.1326 25.5 31V30C25.5 29.8674 25.5527 29.7402 25.6464 29.6464C25.7402 29.5527 25.8674 29.5 26 29.5C26.1326 29.5 26.2598 29.5527 26.3536 29.6464C26.4473 29.7402 26.5 29.8674 26.5 30V31C26.5 31.1326 26.4473 31.2598 26.3536 31.3536C26.2598 31.4473 26.1326 31.5 26 31.5Z" fill="#FFB895"/>
<path d="M43.5 37.5C43.3674 37.5 43.2402 37.4473 43.1464 37.3536C43.0527 37.2598 43 37.1326 43 37V36C43 35.8674 43.0527 35.7402 43.1464 35.6464C43.2402 35.5527 43.3674 35.5 43.5 35.5C43.6326 35.5 43.7598 35.5527 43.8536 35.6464C43.9473 35.7402 44 35.8674 44 36V37C44 37.1326 43.9473 37.2598 43.8536 37.3536C43.7598 37.4473 43.6326 37.5 43.5 37.5Z" fill="#FE691E"/>
<path d="M42 34C41.8674 34 41.7402 33.9473 41.6464 33.8536C41.5527 33.7598 41.5 33.6326 41.5 33.5V32.5C41.5 32.3674 41.5527 32.2402 41.6464 32.1464C41.7402 32.0527 41.8674 32 42 32C42.1326 32 42.2598 32.0527 42.3536 32.1464C42.4473 32.2402 42.5 32.3674 42.5 32.5V33.5C42.5 33.6326 42.4473 33.7598 42.3536 33.8536C42.2598 33.9473 42.1326 34 42 34Z" fill="#FF8D54"/>
<path d="M44 32.5C43.8674 32.5 43.7402 32.4473 43.6464 32.3536C43.5527 32.2598 43.5 32.1326 43.5 32V30.5C43.5 30.3674 43.5527 30.2402 43.6464 30.1464C43.7402 30.0527 43.8674 30 44 30C44.1326 30 44.2598 30.0527 44.3536 30.1464C44.4473 30.2402 44.5 30.3674 44.5 30.5V32C44.5 32.1326 44.4473 32.2598 44.3536 32.3536C44.2598 32.4473 44.1326 32.5 44 32.5Z" fill="#FFB895"/>
</g>
<defs>
<filter id="filter0_d_5_919" x="-6" y="-1" width="82" height="82" filterUnits="userSpaceOnUse" color-interpolation-filters="sRGB">
<feFlood flood-opacity="0" result="BackgroundImageFix"/>
<feColorMatrix in="SourceAlpha" type="matrix" values="0 0 0 0 0 0 0 0 0 0 0 0 0 0 0 0 0 0 127 0" result="hardAlpha"/>
<feOffset/>
<feGaussianBlur stdDeviation="12.5"/>
<feColorMatrix type="matrix" values="0 0 0 0 0.929167 0 0 0 0 0.36776 0 0 0 0 0.0851736 0 0 0 0.35 0"/>
<feBlend mode="normal" in2="BackgroundImageFix" result="effect1_dropShadow_5_919"/>
<feBlend mode="normal" in="SourceGraphic" in2="effect1_dropShadow_5_919" result="shape"/>
</filter>
<linearGradient id="paint0_linear_5_919" x1="34.6944" y1="25.5" x2="34.6944" y2="54.5" gradientUnits="userSpaceOnUse">
<stop stop-color="#FF9159"/>
<stop offset="0.6875" stop-color="#FF7631"/>
<stop offset="1" stop-color="#FF6A1F"/>
</linearGradient>
</defs>
</svg>
