<svg width="22" height="22" viewBox="0 0 22 22" fill="none" xmlns="http://www.w3.org/2000/svg">
<path d="M21.1406 12.2084C21.6153 12.2084 22 11.8236 22 11.349V6.35938C22 4.46394 20.4579 2.92188 18.5625 2.92188H3.4375C1.54206 2.92188 0 4.46394 0 6.35938V15.6406C0 17.5361 1.54206 19.0781 3.4375 19.0781H18.5625C20.4579 19.0781 22 17.5361 22 15.6406C22 15.166 21.6153 14.7812 21.1406 14.7812C20.666 14.7812 20.2812 15.166 20.2812 15.6406C20.2812 16.5883 19.5102 17.3594 18.5625 17.3594H3.4375C2.48978 17.3594 1.71875 16.5883 1.71875 15.6406V9.20055H20.2812V11.349C20.2812 11.8236 20.666 12.2084 21.1406 12.2084ZM1.71875 7.4818V6.35938C1.71875 5.41166 2.48978 4.64062 3.4375 4.64062H18.5625C19.5102 4.64062 20.2812 5.41166 20.2812 6.35938V7.4818H1.71875Z" fill="#84848D"/>
</svg>
