<svg width="18" height="14" viewBox="0 0 18 14" fill="none" xmlns="http://www.w3.org/2000/svg">
<path d="M15.7252 0.16333H2.27485C1.02052 0.16333 0 1.22165 0 2.52243V11.4775C0 12.7782 1.02052 13.8366 2.27485 13.8366H15.7252C16.9795 13.8366 18 12.7782 18 11.4775V2.52243C18 1.22165 16.9795 0.16333 15.7252 0.16333ZM15.3698 1.68507L9 6.78787L2.63025 1.68507H15.3698ZM15.7252 12.3149H2.27485C1.82964 12.3149 1.46739 11.9393 1.46739 11.4776V2.67643L8.55147 8.3515C8.68353 8.45731 8.84181 8.51017 9 8.51017C9.15819 8.51017 9.31647 8.45731 9.44853 8.3515L16.5326 2.67643V11.4775C16.5326 11.9393 16.1704 12.3149 15.7252 12.3149Z" fill="white"/>
</svg>
