<svg width="18" height="22" viewBox="0 0 18 22" fill="none" xmlns="http://www.w3.org/2000/svg">
<g clip-path="url(#clip0_5_1014)">
<path d="M14.8625 9.45312C14.8625 8.97849 14.4848 8.59375 14.0188 8.59375H5.32813C4.86212 8.59375 4.48438 8.97849 4.48438 9.45312C4.48438 9.92776 4.86212 10.3125 5.32813 10.3125H14.0188C14.4848 10.3125 14.8625 9.92776 14.8625 9.45312Z" fill="#84848D"/>
<path d="M5.32812 12.0312C4.86212 12.0312 4.48438 12.416 4.48438 12.8906C4.48438 13.3653 4.86212 13.75 5.32812 13.75H10.6062C11.0722 13.75 11.45 13.3653 11.45 12.8906C11.45 12.416 11.0722 12.0312 10.6062 12.0312H5.32812Z" fill="#84848D"/>
<path d="M7.31407 20.2812H4.49219C3.5617 20.2812 2.80469 19.5102 2.80469 18.5625V3.4375C2.80469 2.48978 3.5617 1.71875 4.49219 1.71875H14.8656C15.7961 1.71875 16.5531 2.48978 16.5531 3.4375L16.6466 19.25C16.6466 19.7083 17.0966 19.7083 17.0966 19.7083C17.0966 19.7083 17.5466 20.2812 18.2406 8.72266V3.4375C18.2406 1.54206 16.7266 0 14.8656 0H4.49219C2.63121 0 1.11719 1.54206 1.11719 3.4375V18.5625C1.11719 20.4579 2.63121 22 4.49219 22H7.31407C7.78007 22 8.15782 21.6153 8.15782 21.1406C8.15782 20.666 7.78007 20.2812 7.31407 20.2812Z" fill="#84848D"/>
<path d="M14.0188 5.15625H5.32813C4.86212 5.15625 4.48438 5.54099 4.48438 6.01562C4.48438 6.49026 4.86212 6.875 5.32813 6.875H14.0188C14.4848 6.875 14.8625 6.49026 14.8625 6.01562C14.8625 5.54099 14.4848 5.15625 14.0188 5.15625Z" fill="#84848D"/>
</g>
<defs>
<clipPath id="clip0_5_1014">
<rect width="18" height="22" fill="white"/>
</clipPath>
</defs>
</svg>
