<svg width="24" height="24" viewBox="0 0 24 24" fill="none" xmlns="http://www.w3.org/2000/svg">
<g clip-path="url(#clip0_5_1029)">
<path d="M0.497502 11.9643C1.86886 10.593 4.1003 10.5929 5.47166 11.9643L7.7325 14.2252C8.01411 14.5068 8.36131 14.6989 8.73964 14.7875L8.73964 12.0301L16.5662 12.0301C17.5053 12.0301 18.3884 12.3959 19.0525 13.06L24 18.0075L18.7861 23.2213L14.6272 19.0623L9.22406 19.0623C7.53368 19.0623 5.94558 18.4052 4.75232 17.2121C1.66667 14.1267 0.182884 12.6446 1.20699e-06 12.4618L0.497502 11.9643ZM5.74676 16.2176C6.67439 17.1451 7.90933 17.6559 9.22406 17.6559L15.2097 17.6559L18.7861 21.2323L22.011 18.0075L18.058 14.0545C17.6595 13.656 17.1297 13.4366 16.5662 13.4366L10.1461 13.4366L10.1461 14.8431L14.9185 14.8431L14.9185 16.2495L9.22416 16.2495C8.28499 16.2495 7.40203 15.8838 6.73797 15.2196L4.47713 12.9589C3.82849 12.3102 2.85913 12.1729 2.07462 12.5466C3.20141 13.6726 4.64731 15.1182 5.74676 16.2176V16.2176Z" fill="white"/>
<path d="M5.95189 0.778808L15.7969 0.778809L15.7969 10.6238L5.95189 10.6238L5.95189 0.778808ZM7.35831 9.21738L14.3904 9.21738L14.3904 2.18524L11.5776 2.18524L11.5776 4.99809L10.1712 4.99809L10.1712 2.18524L7.35831 2.18524L7.35831 9.21738Z" fill="white"/>
</g>
<defs>
<clipPath id="clip0_5_1029">
<rect width="24" height="24" fill="white" transform="matrix(-1 -8.74228e-08 -8.74228e-08 1 24 0)"/>
</clipPath>
</defs>
</svg>
