<svg width="24" height="28" viewBox="0 0 24 28" fill="none" xmlns="http://www.w3.org/2000/svg">
<path d="M0.497502 15.9643C1.86886 14.593 4.1003 14.5929 5.47166 15.9643L7.7325 18.2252C8.01411 18.5068 8.36131 18.6989 8.73964 18.7875L8.73964 16.0301L16.5662 16.0301C17.5053 16.0301 18.3884 16.3959 19.0525 17.06L24 22.0075L18.7861 27.2213L14.6272 23.0623L9.22406 23.0623C7.53368 23.0623 5.94558 22.4052 4.75232 21.2121C1.66667 18.1267 0.182884 16.6446 1.20699e-06 16.4618L0.497502 15.9643ZM5.74676 20.2176C6.67439 21.1451 7.90933 21.6559 9.22406 21.6559L15.2097 21.6559L18.7861 25.2323L22.011 22.0075L18.058 18.0545C17.6595 17.656 17.1297 17.4366 16.5662 17.4366L10.1461 17.4366L10.1461 18.8431L14.9185 18.8431L14.9185 20.2495L9.22416 20.2495C8.28499 20.2495 7.40203 19.8838 6.73797 19.2196L4.47713 16.9589C3.82849 16.3102 2.85913 16.1729 2.07462 16.5466C3.20141 17.6726 4.64731 19.1182 5.74676 20.2176V20.2176Z" fill="white"/>
<path d="M5.95189 0.778808L15.7969 0.778809L15.7969 10.6238L5.95189 10.6238L5.95189 0.778808ZM7.35831 9.21738L14.3904 9.21738L14.3904 2.18524L11.5776 2.18524L11.5776 4.99809L10.1712 4.99809L10.1712 2.18524L7.35831 2.18524L7.35831 9.21738Z" fill="white"/>
</svg>
