<svg width="22" height="22" viewBox="0 0 22 22" fill="none" xmlns="http://www.w3.org/2000/svg">
<path d="M11 0C4.93778 0 0 4.93778 0 11C0 17.0622 4.93778 22 11 22C17.0622 22 22 17.0622 22 11C22 4.93778 17.0622 0 11 0ZM11 20.0444C6.01333 20.0444 1.95556 15.9867 1.95556 11C1.95556 6.01333 6.01333 1.95556 11 1.95556C15.9867 1.95556 20.0444 6.01333 20.0444 11C20.0444 15.9867 15.9867 20.0444 11 20.0444Z" fill="#84848D"/>
<path d="M10.9957 6.30675C11.6707 6.30675 12.2179 5.75954 12.2179 5.08453C12.2179 4.40951 11.6707 3.8623 10.9957 3.8623C10.3206 3.8623 9.77344 4.40951 9.77344 5.08453C9.77344 5.75954 10.3206 6.30675 10.9957 6.30675Z" fill="#84848D"/>
<path d="M11.0002 8.13989C10.4625 8.13989 10.0225 8.57989 10.0225 9.11767V17.1843C10.0225 17.7221 10.4625 18.1621 11.0002 18.1621C11.538 18.1621 11.978 17.7221 11.978 17.1843V9.11767C11.978 8.55545 11.538 8.13989 11.0002 8.13989Z" fill="#84848D"/>
</svg>
